<svg width="1008.8" height="173.1" version="1.1" viewBox="0 0 1008.8 173.1" xml:space="preserve" xmlns="http://www.w3.org/2000/svg">
<style type="text/css">
	.st0{fill:#FFFFFF;}
	.st1{fill:#115E59;}
	.st2{fill:#059669;}
</style>

<g transform="translate(-208.3,-420.9)">
	<polygon class="st1" points="208.3 583.7 208.3 447.8 295.8 447.8 295.8 459.2 220.3 459.2 220.3 509.6 289.3 509.6 289.3 521.1 220.3 521.1 220.3 572.3 296.7 572.3 296.7 583.7"/>
	<path class="st1" d="m314.4 533.5c0-30 22.9-52.6 53.2-52.6 19.9 0 36.7 9.9 45.7 25.2l-10 6.1c-6.9-12.2-20.1-20.3-35.7-20.3-23.7 0-41.4 17.9-41.4 41.6 0 23.6 17.7 41.6 41.4 41.6 15.6 0 28.8-8.1 35.7-20.3l10 6.1c-9.1 15.4-25.8 25.2-45.7 25.2-30.4 0-53.2-22.7-53.2-52.6"/>
	<path class="st1" d="m458.9 493.7v64.2c0 12.4 6.7 17.1 17.7 17.1 5.9 0 10.2-1.6 14.4-3.7v10.8c-4.9 2.6-9.6 3.9-16.6 3.9-17.3 0-27-8.9-27-26.4v-66h-19.5v-10.4h19.5v-28h11.4v28h32.2v10.4h-32.1z"/>
	<path class="st1" d="m503.1 533.5c0-30 22.9-52.6 53.2-52.6 30.2 0 53 22.7 53 52.6s-22.9 52.6-53 52.6c-30.4 0-53.2-22.7-53.2-52.6m94.4 0c0-23.7-17.5-41.6-41.2-41.6s-41.4 17.9-41.4 41.6c0 23.6 17.7 41.6 41.4 41.6 23.6 0 41.2-18 41.2-41.6"/>
	<path class="st1" d="m686.2 481.7v11.8h-3c-23.1 0-37.8 15-37.8 38.4v51.8h-11.4v-100.5h11.4v21.1c7.3-14.2 20.7-22.7 37.8-22.7h3z"/>
	<path class="st1" d="m837.6 507.3v9.5c0 40-29.2 69.4-69 69.4-40.6 0-71.1-30.4-71.1-70.4s30.9-70.4 71.7-70.4c23.9 0 44.7 10.2 56.8 26.6l-20.5 16.4c-8.1-10.4-20.9-17-35.7-17-25.2 0-44.3 18.9-44.3 44.3s18.9 44.3 44.1 44.3c19.5 0 35.3-11.6 39.4-28.6h-36.9v-24.2h65.5z"/>
	<path class="st1" d="m914.7 481.7v26.4h-4.3c-18.3 0-29 10.8-29 28v47.7h-25.6v-100.6h25.6v13c7.3-9.3 17.1-14.6 29-14.6h4.3z"/>
	<path class="st1" d="m921.3 533.5c0-30 23.3-52.6 54-52.6s54 22.7 54 52.6-23.3 52.6-54 52.6c-30.8 0-54-22.7-54-52.6m81.6 0c0-15.8-11.6-27.8-27.6-27.8-15.8 0-27.6 12-27.6 27.8s11.8 27.8 27.6 27.8c15.9 0 27.6-12 27.6-27.8"/>
	<path class="st2" d="m1216.5 492.7c0.2-0.2 0.4-0.5 0.6-0.7 0-0.1-0.1-0.1-0.1-0.2-1 0.3-2 0.7-3 1-4 1.4-8 2.8-12 4.3-0.7 0.3-1.1 0.1-1.3-0.6 0-0.2-0.1-0.3-0.1-0.5-0.1-0.6-0.5-0.7-1-0.4-2.3 1.1-4.6 2.2-6.9 3.4-0.6 0.3-0.8 0.2-0.9-0.4 0-0.4-0.1-0.8-0.2-1.2-0.2-0.9-0.4-1-1.2-0.4-2.4 1.7-4.8 3.5-7.2 5.2-0.9 0.7-1 0.6-1.2-0.4-0.2-0.8-0.3-1.6-0.5-2.4-0.1-0.3 0-0.6-0.4-0.7-0.3-0.1-0.5 0.2-0.6 0.4l-6 5.7c-0.7 0.6-0.7 0.6-1.2-0.2l-1.2-2.1c-0.3-0.6-0.6-0.5-0.9 0-1.8 2.5-3.7 5-5.5 7.5-0.6 0.8-0.6 0.8-1.2-0.1-1-1.5-0.8-1.6-2 0-1.8 2.4-3.6 4.8-5.4 7.2-0.3 0.5-0.5 0.4-0.8-0.1 0-0.1-0.1-0.1-0.1-0.2-1-1.8-0.9-1.4-1.8 0-1.2 1.9-2.4 3.8-3.6 5.7-0.4 0.6-0.6 0.6-1 0.1-0.2-0.4-0.5-0.7-0.8-1.1-0.3-0.5-0.6-0.5-0.9 0.1-1.3 2.3-2.5 4.6-3.8 6.8-0.5 0.9-0.5 0.9-1.4 0.4-0.9-0.6-0.9-0.6-1.4 0.4-1.3 2.7-2.5 5.3-3.8 8-0.3 0.5-0.5 0.6-0.9 0.1-0.5-0.6-0.8-0.3-1.2 0.2-1.4 2-2.9 4-4.4 6.1-0.1 0.1-0.2 0.2-0.4 0.3 0.6-1.2 1.3-2.5 1.9-3.7 0.3-0.6 0.7-1.1-0.4-1.3-0.5-0.1-0.3-0.4-0.1-0.7l1.8-3c0.6-1 1.2-2.1 1.9-3.1 0.3-0.4 0.2-0.7-0.3-0.8-0.4-0.1-0.8-0.4-1.2-0.5-0.5-0.2-0.6-0.5-0.3-1 1-1.8 2-3.6 3-5.5 0.9-1.8 1.9-3.5 2.8-5.3 0.3-0.5 0.2-0.7-0.4-0.9-1.6-0.5-1.6-0.5-0.8-1.9 1.4-2.6 2.8-5.3 4.1-7.9 0.4-0.9 0.4-0.9-0.6-1.1h-0.1c-1.6-0.2-1.6-0.2-1.1-1.9l2.4-7.2c0.3-0.9 0.2-0.9-0.6-0.9h-1.8c-0.6 0-0.8-0.2-0.6-0.8 1.4-3.8 2.8-7.6 4.3-11.3 0.4-1 0.3-1.1-0.8-1.1h-2.2c-0.6 0-0.7-0.2-0.5-0.7 0.7-2.1 1.4-4.3 2.1-6.4 0.5-1.5 1-3.1 1.5-4.6 0.2-0.6 0.1-0.9-0.6-0.7-1 0.2-2.1 0.2-3.1 0.4-0.7 0.1-0.9-0.2-0.8-0.8 0.3-2.1 0.6-4.3 0.9-6.4 0.2-1.3 0.4-2.7 0.5-4 0.1-0.6-0.1-0.7-0.7-0.5-1.2 0.6-2.5 1.1-3.7 1.6-0.6 0.3-0.7 0.1-0.7-0.4 0.1-2.8 0.3-5.6 0.4-8.4 0.1-1.1 0-2.3 0.1-3.4 0-0.6-0.3-0.5-0.7-0.4-0.8 0.3-1.5 0.6-2.3 0.8-0.8 0.3-0.9 0.2-1-0.6-0.5-3-1-5.9-1.5-8.9-0.2-1.1-0.3-1.1-1.4-0.8-1.4 0.4-1.4 0.4-1.8-1l-5.1-17.4c0-0.1-0.1-0.3-0.2-0.5-0.1 0.2-0.1 0.3-0.2 0.5l-5.1 17.4c-0.4 1.4-0.4 1.4-1.8 1-1.2-0.4-1.2-0.3-1.4 0.8-0.5 3-1 5.9-1.5 8.9-0.1 0.8-0.3 0.9-1 0.6-0.8-0.3-1.5-0.6-2.3-0.8-0.4-0.1-0.7-0.2-0.7 0.4 0 1.1 0 2.3 0.1 3.4 0.1 2.8 0.3 5.6 0.4 8.4 0 0.6-0.1 0.7-0.7 0.4-1.2-0.6-2.5-1.1-3.7-1.6-0.6-0.2-0.7-0.1-0.7 0.5 0.2 1.3 0.4 2.7 0.5 4 0.3 2.1 0.6 4.3 0.9 6.4 0.1 0.6-0.1 0.9-0.8 0.8-1-0.2-2.1-0.2-3.1-0.4-0.7-0.1-0.8 0.2-0.6 0.7 0.5 1.5 1 3.1 1.5 4.6 0.7 2.1 1.4 4.3 2 6.4 0.2 0.5 0.1 0.7-0.5 0.7h-2.2c-1.1 0-1.2 0.1-0.8 1.1 1.4 3.8 2.8 7.6 4.3 11.3 0.2 0.6 0.1 0.8-0.6 0.8h-1.8c-0.9 0-0.9 0.1-0.6 0.9l2.4 7.2c0.5 1.6 0.5 1.6-1.1 1.9h-0.1c-1 0.2-1 0.2-0.6 1.1 1.4 2.6 2.7 5.3 4.1 7.9 0.8 1.5 0.8 1.5-0.8 1.9-0.6 0.2-0.7 0.4-0.4 0.9 1 1.7 1.9 3.5 2.8 5.3 1 1.8 2 3.6 3 5.5 0.3 0.5 0.2 0.8-0.3 1-0.4 0.1-0.8 0.3-1.2 0.5-0.5 0.2-0.6 0.4-0.3 0.8 0.6 1 1.2 2.1 1.9 3.1l1.8 3c0.1 0.2 0.4 0.6-0.1 0.7-1.1 0.2-0.7 0.7-0.4 1.3 0.7 1.2 1.3 2.5 1.9 3.7-0.2 0-0.3-0.2-0.4-0.3-1.5-2-2.9-4-4.4-6.1-0.4-0.5-0.7-0.7-1.2-0.2-0.4 0.4-0.6 0.4-0.9-0.1-1.2-2.7-2.5-5.3-3.8-8-0.5-1-0.5-1.1-1.4-0.4-0.9 0.6-0.9 0.6-1.4-0.4-1.2-2.3-2.5-4.6-3.8-6.8-0.3-0.5-0.6-0.6-0.9-0.1-0.2 0.4-0.5 0.7-0.8 1.1-0.4 0.6-0.6 0.5-1-0.1-1.2-1.9-2.4-3.8-3.6-5.7-0.9-1.4-0.8-1.8-1.8 0 0 0.1-0.1 0.1-0.1 0.2-0.2 0.4-0.4 0.5-0.8 0.1-1.8-2.4-3.6-4.8-5.4-7.2-1.2-1.6-1-1.5-2 0-0.6 0.9-0.6 0.9-1.2 0.1-1.8-2.5-3.7-5-5.5-7.5-0.4-0.5-0.6-0.6-0.9 0l-1.2 2.1c-0.5 0.8-0.5 0.8-1.2 0.2l-6-5.7c-0.2-0.2-0.4-0.5-0.7-0.4s-0.3 0.5-0.4 0.7c-0.2 0.8-0.3 1.6-0.5 2.4-0.2 1.1-0.3 1.1-1.3 0.4-2.4-1.7-4.8-3.5-7.2-5.2-0.8-0.6-0.9-0.5-1.1 0.4-0.1 0.4-0.2 0.8-0.2 1.2-0.1 0.6-0.3 0.7-0.9 0.4-2.3-1.1-4.6-2.2-6.9-3.4-0.6-0.3-0.9-0.2-1 0.4 0 0.2-0.1 0.3-0.1 0.5-0.1 0.8-0.5 0.9-1.3 0.6-4-1.4-8-2.9-12-4.3-1-0.3-2-0.7-3-1 0 0.1-0.1 0.1-0.1 0.2 0.2 0.2 0.4 0.5 0.6 0.7 3.3 3.4 6.7 6.8 10 10.2 0.8 0.8 0.8 0.8 0 1.7-0.7 0.9-0.7 0.9 0.1 1.6l5.1 4.2c0.5 0.4 0.4 0.6 0 0.9-0.5 0.3-1.1 0.7-1.6 1.1-0.7 0.5-0.8 0.5 0 1 1.5 0.9 3 1.9 4.5 2.8 0.6 0.3 0.6 0.6 0.1 1s-0.9 0.9-1.4 1.4c-0.7 0.7-0.7 0.7 0.2 1.2 2.5 1.3 5 2.7 7.5 4 0.7 0.4 0.7 0.7 0.3 1.3-0.5 0.6-0.9 1.3-1.3 1.9-0.5 0.8-0.5 0.8 0.3 1.2 2.4 1 4.8 2 7.1 3 1.6 0.7 1.6 0.7 0.5 2.2-0.5 0.7-0.5 0.8 0.3 1.1 2.6 1 5.2 1.9 7.8 2.9 1.5 0.6 1.5 0.6 0.8 2.1-0.4 0.9-0.4 0.9 0.5 1.2 1.7 0.6 3.5 1.1 5.2 1.6 0.5 0.1 0.6 0.3 0.3 0.8-0.6 0.7-0.6 0.8 0.3 1 2.8 0.9 5.5 1.8 8.3 2.6 0.5 0.2 0.7 0.3 0.5 0.9-0.3 0.9-0.3 1 0.7 1.2 2.8 0.7 5.7 1.4 8.5 2.1 0.4 0.1 0.7 0.2 0.4 0.7-0.6 1-0.5 1 0.7 1 1.9 0 3.9 0 5.8 0.1 0.3 0 0.8 0 0.6 0.5-0.3 0.7 0.2 0.9 0.7 1 1 0.2 2.1 0.5 3.1 0.8-1.2 0.1-2.5-0.1-3.7-0.1-0.3 0-0.8-0.2-0.9 0.1-0.2 0.9-0.8 0.5-1.2 0.4-1.9-0.4-3.7-0.8-5.6-1.2-0.5-0.1-0.8-0.1-0.8 0.5 0.1 0.8-0.3 0.8-0.9 0.7-1.9-0.4-3.8-0.7-5.6-1-0.4-0.1-0.7-0.1-0.7 0.5 0.1 0.9 0.1 0.9-0.9 0.8-1.7-0.3-3.3-0.5-5-0.8-0.7-0.1-1 0.1-0.7 0.8 0.2 0.6-0.1 0.7-0.6 0.6-1.5-0.2-3-0.5-4.6-0.7-1.4-0.2-1.4-0.2-1 1.2 0.3 1 0.2 1.1-0.8 1.1h-4.1c-1 0-1 0.1-0.5 1 0.2 0.3 0.4 0.6 0.5 0.9 0.3 0.4 0.3 0.6-0.3 0.7-1.6 0.2-3.3 0.5-4.9 0.8-1 0.2-1.1 0.2-0.6 1.1 0.4 0.6 0.2 0.8-0.4 1-1.2 0.4-2.4 0.8-3.6 1.2-0.6 0.2-0.9 0.5-0.5 1.1 0.2 0.4 0.1 0.6-0.3 0.7-1.8 0.8-3.5 1.6-5.3 2.5-1.1 0.5-2.2 1.1-3.4 1.7 0.5 0.3 0.8 0.2 1.1 0.2h8c0.5 0 1 0.1 0.9 0.8 0 0.6 0.3 0.7 0.8 0.7 1-0.1 1.9-0.2 2.9-0.3 1.4-0.1 1.4-0.1 1.2 1.2-0.1 0.7 0.2 0.7 0.7 0.6 0.8-0.2 1.6-0.3 2.4-0.6 0.6-0.2 1-0.1 0.8 0.7-0.1 0.8 0 0.9 0.8 0.7 1.2-0.3 2.4-0.5 3.6-0.8 1.7-0.4 1.8-0.4 2.1 1.4 0.1 0.6 0.3 0.7 0.9 0.5 1.4-0.6 2.9-1.1 4.3-1.7 0.7-0.3 1-0.1 1 0.6 0 0.6 0.3 0.6 0.8 0.4 1.5-0.7 3.1-1.4 4.6-2.1 0.6-0.3 0.9-0.3 1 0.5 0.1 0.6 0.4 0.7 0.9 0.4 0.9-0.5 1.7-0.9 2.6-1.3 0.2-0.1 0.6-0.4 0.6 0.2 0.1 0.7 0.5 0.5 0.8 0.3 1.4-0.8 2.8-1.5 4.2-2.3 0.3-0.2 0.7-0.5 0.9 0.1 0.2 0.7 0.6 0.5 1.1 0.2 1.3-0.8 2.7-1.5 4-2.3 0.3-0.2 0.6-0.3 0.7 0.2 0.2 0.6 0.5 0.6 1 0.3 0.9-0.6 1.9-1.2 2.8-1.8 0.2-0.1 0.5-0.4 0.7-0.2 0.6 0.4 0.9 0 1.4-0.2 0.4-0.3 0.9-0.6 1.3-0.9 0.2-0.1 0.4-0.4 0.6-0.1 0.3 0.3 0.6 0.1 0.9 0 0.7-0.3 1.5-0.7 2.4-1.1-0.3 0.3-0.5 0.5-0.5 0.6 0.4 0.8-0.3 0.7-0.7 0.8-0.2 0.1-0.5 0.2-0.8 0.2-0.2 0.1-0.4 0.2-0.3 0.4 0.2 0.6-0.2 0.6-0.5 0.7-0.5 0.2-0.9 0.4-1.4 0.5-0.2 0.1-0.5 0.2-0.4 0.4 0.2 0.7-0.3 0.7-0.7 0.9-0.5 0.3-1.1 0.5-1.6 0.7-0.2 0.1-0.6 0.2-0.4 0.5 0.2 0.5-0.1 0.6-0.4 0.7-0.6 0.3-1.2 0.5-1.7 0.8-0.4 0.2-0.6 0.4-0.2 0.7s0.3 0.6-0.1 0.8c-0.5 0.3-0.9 0.6-1.4 0.9-0.4 0.3-0.5 0.5 0 0.8 0.5 0.2 0.4 0.5 0 0.7-0.6 0.4-1.1 0.8-1.7 1.2-0.2 0.2-0.5 0.4-0.1 0.6 0.7 0.3 0.4 0.7 0.1 1.1-0.3 0.3-0.6 0.7-0.9 1-0.2 0.2-0.3 0.5 0 0.7 0.2 0.2 0.1 0.4 0 0.6-0.3 0.4-0.5 0.9-0.8 1.3-0.5 0.8-1 1.7-1.6 2.6 0.5 0 0.7-0.2 0.9-0.4 1-0.6 1.9-1.2 2.9-1.8 0.2-0.1 0.4-0.4 0.6-0.1 0.4 0.4 0.7 0.1 1-0.2 0.3-0.2 0.6-0.5 0.9-0.7 0.2-0.1 0.4-0.2 0.5 0 0.4 0.9 0.7 0.2 1-0.1s0.6-1 1.2-0.2c0.1 0.2 0.4-0.1 0.5-0.2l1.2-1.2c0.3-0.3 0.7-0.5 1.1-0.1 0.3 0.4 0.6 0.2 0.8-0.2 0.4-0.5 0.7-1 1.1-1.6 0.2-0.3 0.4-0.4 0.6-0.1 0.5 0.5 0.7 0.2 0.9-0.3 0.4-0.7 0.7-1.4 1.1-2.1 0.7 0.7 0.7 0.7 1.1-0.1 0.1-0.3 0.3-0.5 0.4-0.8 0.1-0.4 0.2-0.7 0.7-0.3 0.3 0.3 0.4-0.1 0.5-0.3 0.3-0.6 0.5-1.2 0.8-1.8 0.1-0.2 0.1-0.6 0.4-0.5 0.5 0.1 0.6-0.3 0.8-0.6l-2.6 22.6h11.7l-2.6-22.6c0.2 0.3 0.2 0.7 0.8 0.6 0.3-0.1 0.3 0.3 0.4 0.5 0.3 0.6 0.5 1.2 0.8 1.8 0.1 0.2 0.2 0.6 0.5 0.3 0.5-0.4 0.6-0.1 0.7 0.3 0.1 0.3 0.2 0.5 0.4 0.8 0.4 0.8 0.4 0.8 1.1 0.1 0.4 0.7 0.8 1.4 1.1 2.1 0.2 0.4 0.4 0.8 0.9 0.3 0.3-0.3 0.5-0.1 0.6 0.1 0.4 0.5 0.7 1 1.1 1.6 0.2 0.3 0.5 0.5 0.8 0.2 0.4-0.4 0.7-0.3 1.1 0.1l1.2 1.2c0.1 0.1 0.4 0.4 0.5 0.2 0.6-0.8 0.8 0 1.2 0.2 0.3 0.2 0.6 1 1 0.1 0.1-0.2 0.3-0.1 0.5 0 0.3 0.2 0.6 0.5 0.9 0.7s0.6 0.6 1 0.2c0.2-0.2 0.4 0 0.6 0.1 1 0.6 1.9 1.2 2.9 1.8 0.2 0.1 0.4 0.4 0.9 0.4-0.6-0.9-1.1-1.7-1.6-2.6-0.3-0.4-0.5-0.9-0.8-1.3-0.1-0.2-0.3-0.4 0-0.6s0.1-0.5 0-0.7c-0.3-0.3-0.6-0.7-0.9-1-0.4-0.4-0.6-0.8 0.1-1.1 0.4-0.2 0.2-0.4-0.1-0.6-0.5-0.4-1.1-0.8-1.7-1.2-0.4-0.3-0.5-0.5 0-0.7s0.5-0.5 0-0.8-0.9-0.6-1.4-0.9c-0.4-0.2-0.5-0.5-0.1-0.8 0.4-0.4 0.2-0.6-0.2-0.7-0.6-0.3-1.2-0.5-1.7-0.8-0.3-0.1-0.6-0.2-0.4-0.7 0.2-0.4-0.2-0.4-0.4-0.5-0.5-0.3-1.1-0.5-1.6-0.7-0.4-0.2-0.9-0.2-0.7-0.9 0.1-0.2-0.2-0.3-0.4-0.4-0.5-0.2-0.9-0.4-1.4-0.5-0.3-0.1-0.8-0.2-0.5-0.7 0.1-0.2-0.1-0.3-0.3-0.4s-0.5-0.1-0.8-0.2c-0.3-0.2-1 0-0.7-0.8 0-0.1-0.2-0.3-0.5-0.6 1 0.4 1.7 0.7 2.4 1.1 0.3 0.1 0.6 0.3 0.9 0 0.2-0.2 0.4 0 0.6 0.1 0.4 0.3 0.9 0.6 1.3 0.9s0.8 0.6 1.4 0.2c0.2-0.2 0.5 0.1 0.7 0.2 0.9 0.6 1.9 1.2 2.8 1.8 0.5 0.3 0.8 0.4 1-0.3 0.1-0.5 0.4-0.4 0.7-0.2 1.3 0.8 2.7 1.5 4 2.3 0.5 0.3 0.9 0.4 1.1-0.2s0.6-0.3 0.9-0.1c1.4 0.8 2.8 1.5 4.2 2.3 0.4 0.2 0.8 0.4 0.8-0.3 0.1-0.5 0.4-0.3 0.6-0.2 0.9 0.4 1.8 0.9 2.6 1.3 0.5 0.3 0.8 0.2 0.9-0.4 0.1-0.7 0.4-0.7 1-0.5 1.5 0.7 3.1 1.4 4.6 2.1 0.5 0.2 0.8 0.2 0.8-0.4 0-0.7 0.3-0.9 1-0.6 1.4 0.6 2.9 1.1 4.3 1.7 0.6 0.2 0.8 0.1 0.9-0.5 0.4-1.8 0.4-1.8 2.1-1.4 1.2 0.3 2.4 0.5 3.6 0.8 0.8 0.2 0.9 0.1 0.8-0.7s0.2-0.8 0.8-0.7l2.4 0.6c0.5 0.1 0.8 0.1 0.7-0.6-0.2-1.3-0.1-1.3 1.2-1.2 0.9 0.1 1.9 0.2 2.9 0.3 0.5 0.1 0.9-0.1 0.8-0.7 0-0.7 0.4-0.8 0.9-0.8h8c0.3 0 0.6 0.1 1.1-0.2-1.2-0.6-2.3-1.1-3.4-1.7-1.8-0.8-3.5-1.7-5.3-2.5-0.4-0.2-0.5-0.4-0.3-0.7 0.4-0.6 0.1-0.9-0.5-1.1-1.2-0.4-2.4-0.8-3.6-1.2-0.6-0.2-0.8-0.4-0.4-1 0.5-0.8 0.5-0.9-0.6-1.1-1.6-0.2-3.3-0.5-4.9-0.8-0.6-0.1-0.6-0.3-0.3-0.7l0.6-0.9c0.5-0.9 0.5-1-0.5-1h-4.1c-1 0-1.1-0.1-0.8-1.1 0.4-1.4 0.4-1.4-1-1.2-1.5 0.2-3 0.4-4.6 0.7-0.6 0.1-0.8 0-0.6-0.6 0.2-0.7-0.1-0.9-0.7-0.8-1.7 0.3-3.3 0.5-5 0.8-0.9 0.1-1 0.1-0.9-0.8 0.1-0.6-0.3-0.6-0.7-0.5-1.9 0.3-3.8 0.7-5.6 1-0.6 0.1-1 0.1-0.9-0.7 0-0.6-0.3-0.6-0.8-0.5-1.9 0.4-3.7 0.8-5.6 1.2-0.4 0.1-1 0.5-1.2-0.4-0.1-0.3-0.6-0.2-0.9-0.1-1.2 0.1-2.4 0.2-3.7 0.1 1-0.3 2.1-0.5 3.1-0.8 0.5-0.1 1-0.2 0.7-1-0.2-0.5 0.3-0.5 0.6-0.5 1.9-0.2 3.9-0.1 5.8-0.1 1.2 0 1.2-0.1 0.7-1-0.3-0.6 0-0.6 0.4-0.7 2.8-0.7 5.7-1.4 8.5-2.1 1-0.2 1-0.3 0.7-1.2-0.2-0.6 0-0.7 0.5-0.9 2.8-0.9 5.5-1.7 8.3-2.6 0.9-0.3 0.9-0.3 0.3-1-0.4-0.5-0.2-0.6 0.3-0.8 1.7-0.5 3.5-1.1 5.2-1.6 1-0.3 1-0.3 0.5-1.2-0.8-1.5-0.8-1.5 0.8-2.1 2.6-1 5.2-1.9 7.8-2.9 0.8-0.3 0.9-0.4 0.3-1.1-1-1.4-1-1.5 0.5-2.2 2.4-1 4.7-2 7.1-3 0.9-0.4 0.9-0.4 0.3-1.2-0.4-0.6-0.8-1.3-1.3-1.9-0.4-0.6-0.4-0.9 0.3-1.3 2.5-1.3 5-2.7 7.5-4 0.9-0.5 0.9-0.5 0.2-1.2-0.4-0.5-0.9-0.9-1.4-1.4-0.4-0.4-0.4-0.7 0.1-1 1.5-0.9 3-1.8 4.6-2.8 0.7-0.5 0.7-0.5 0-1-0.5-0.4-1-0.7-1.6-1.1-0.4-0.3-0.5-0.5 0-0.9l5.1-4.2c0.9-0.7 0.9-0.7 0.2-1.6-0.8-0.9-0.8-0.9 0-1.7 5.1-3.4 8.5-6.8 11.8-10.2"/>
</g>
</svg>
