<?xml version="1.0" encoding="UTF-8" standalone="no"?>
<svg
   xmlns:dc="http://purl.org/dc/elements/1.1/"
   xmlns:cc="http://creativecommons.org/ns#"
   xmlns:rdf="http://www.w3.org/1999/02/22-rdf-syntax-ns#"
   xmlns:svg="http://www.w3.org/2000/svg"
   xmlns="http://www.w3.org/2000/svg"
   xmlns:sodipodi="http://sodipodi.sourceforge.net/DTD/sodipodi-0.dtd"
   xmlns:inkscape="http://www.inkscape.org/namespaces/inkscape"
   width="188.2"
   height="173.10001"
   version="1.1"
   viewBox="0 0 188.2 173.1"
   xml:space="preserve"
   id="svg38"
   sodipodi:docname="etgMinimalLogo.svg"
   inkscape:export-filename="/Users/afregoso/Desktop/ETG BUSINESS/ETG LOGO SVG/etgICOsample.png"
   inkscape:export-xdpi="91.817215"
   inkscape:export-ydpi="91.817215"
   inkscape:version="1.0.1 (c497b03c, 2020-09-10)"><metadata
   id="metadata44"><rdf:RDF><cc:Work
       rdf:about=""><dc:format>image/svg+xml</dc:format><dc:type
         rdf:resource="http://purl.org/dc/dcmitype/StillImage" /><dc:title></dc:title></cc:Work></rdf:RDF></metadata><defs
   id="defs42" /><sodipodi:namedview
   pagecolor="#2d2d2d"
   bordercolor="#666666"
   borderopacity="1"
   objecttolerance="10"
   gridtolerance="10"
   guidetolerance="10"
   inkscape:pageopacity="0"
   inkscape:pageshadow="2"
   inkscape:window-width="740"
   inkscape:window-height="480"
   id="namedview40"
   showgrid="false"
   fit-margin-top="0"
   fit-margin-left="0"
   fit-margin-right="0"
   fit-margin-bottom="0"
   inkscape:zoom="0.37846057"
   inkscape:cx="-243.88695"
   inkscape:cy="86.32487"
   inkscape:window-x="1156"
   inkscape:window-y="2089"
   inkscape:window-maximized="0"
   inkscape:current-layer="svg38" />
<style
   type="text/css"
   id="style10">
.st0 {
  fill:#FFFFFF;
}
.st1 {
  fill:#e6f9ef;
}
.st2 {
  fill:#06c37e;
}
]]></style>
<rect
   class="st0"
   x="-1028.9"
   y="-420.89999"
   width="1424.8"
   height="1012"
   display="none"
   id="rect12" />

<g
   transform="translate(-1028.9,-420.9)"
   display="none"
   id="g16"><rect
     x="169.92999"
     y="397.51999"
     width="1057.5"
     height="297.38"
     fill="#2d2d2d"
     stroke-opacity="0"
     id="rect14" /></g><g
   transform="translate(-1028.9,-420.9)"
   id="g36">
	
	
	
	
	
	
	
	
	<path
   class="st2"
   d="m 1216.5,492.7 c 0.2,-0.2 0.4,-0.5 0.6,-0.7 0,-0.1 -0.1,-0.1 -0.1,-0.2 -1,0.3 -2,0.7 -3,1 -4,1.4 -8,2.8 -12,4.3 -0.7,0.3 -1.1,0.1 -1.3,-0.6 0,-0.2 -0.1,-0.3 -0.1,-0.5 -0.1,-0.6 -0.5,-0.7 -1,-0.4 -2.3,1.1 -4.6,2.2 -6.9,3.4 -0.6,0.3 -0.8,0.2 -0.9,-0.4 0,-0.4 -0.1,-0.8 -0.2,-1.2 -0.2,-0.9 -0.4,-1 -1.2,-0.4 -2.4,1.7 -4.8,3.5 -7.2,5.2 -0.9,0.7 -1,0.6 -1.2,-0.4 -0.2,-0.8 -0.3,-1.6 -0.5,-2.4 -0.1,-0.3 0,-0.6 -0.4,-0.7 -0.3,-0.1 -0.5,0.2 -0.6,0.4 l -6,5.7 c -0.7,0.6 -0.7,0.6 -1.2,-0.2 l -1.2,-2.1 c -0.3,-0.6 -0.6,-0.5 -0.9,0 -1.8,2.5 -3.7,5 -5.5,7.5 -0.6,0.8 -0.6,0.8 -1.2,-0.1 -1,-1.5 -0.8,-1.6 -2,0 -1.8,2.4 -3.6,4.8 -5.4,7.2 -0.3,0.5 -0.5,0.4 -0.8,-0.1 0,-0.1 -0.1,-0.1 -0.1,-0.2 -1,-1.8 -0.9,-1.4 -1.8,0 -1.2,1.9 -2.4,3.8 -3.6,5.7 -0.4,0.6 -0.6,0.6 -1,0.1 -0.2,-0.4 -0.5,-0.7 -0.8,-1.1 -0.3,-0.5 -0.6,-0.5 -0.9,0.1 -1.3,2.3 -2.5,4.6 -3.8,6.8 -0.5,0.9 -0.5,0.9 -1.4,0.4 -0.9,-0.6 -0.9,-0.6 -1.4,0.4 -1.3,2.7 -2.5,5.3 -3.8,8 -0.3,0.5 -0.5,0.6 -0.9,0.1 -0.5,-0.6 -0.8,-0.3 -1.2,0.2 -1.4,2 -2.9,4 -4.4,6.1 -0.1,0.1 -0.2,0.2 -0.4,0.3 0.6,-1.2 1.3,-2.5 1.9,-3.7 0.3,-0.6 0.7,-1.1 -0.4,-1.3 -0.5,-0.1 -0.3,-0.4 -0.1,-0.7 l 1.8,-3 c 0.6,-1 1.2,-2.1 1.9,-3.1 0.3,-0.4 0.2,-0.7 -0.3,-0.8 -0.4,-0.1 -0.8,-0.4 -1.2,-0.5 -0.5,-0.2 -0.6,-0.5 -0.3,-1 1,-1.8 2,-3.6 3,-5.5 0.9,-1.8 1.9,-3.5 2.8,-5.3 0.3,-0.5 0.2,-0.7 -0.4,-0.9 -1.6,-0.5 -1.6,-0.5 -0.8,-1.9 1.4,-2.6 2.8,-5.3 4.1,-7.9 0.4,-0.9 0.4,-0.9 -0.6,-1.1 h -0.1 c -1.6,-0.2 -1.6,-0.2 -1.1,-1.9 l 2.4,-7.2 c 0.3,-0.9 0.2,-0.9 -0.6,-0.9 h -1.8 c -0.6,0 -0.8,-0.2 -0.6,-0.8 1.4,-3.8 2.8,-7.6 4.3,-11.3 0.4,-1 0.3,-1.1 -0.8,-1.1 h -2.2 c -0.6,0 -0.7,-0.2 -0.5,-0.7 0.7,-2.1 1.4,-4.3 2.1,-6.4 0.5,-1.5 1,-3.1 1.5,-4.6 0.2,-0.6 0.1,-0.9 -0.6,-0.7 -1,0.2 -2.1,0.2 -3.1,0.4 -0.7,0.1 -0.9,-0.2 -0.8,-0.8 0.3,-2.1 0.6,-4.3 0.9,-6.4 0.2,-1.3 0.4,-2.7 0.5,-4 0.1,-0.6 -0.1,-0.7 -0.7,-0.5 -1.2,0.6 -2.5,1.1 -3.7,1.6 -0.6,0.3 -0.7,0.1 -0.7,-0.4 0.1,-2.8 0.3,-5.6 0.4,-8.4 0.1,-1.1 0,-2.3 0.1,-3.4 0,-0.6 -0.3,-0.5 -0.7,-0.4 -0.8,0.3 -1.5,0.6 -2.3,0.8 -0.8,0.3 -0.9,0.2 -1,-0.6 -0.5,-3 -1,-5.9 -1.5,-8.9 -0.2,-1.1 -0.3,-1.1 -1.4,-0.8 -1.4,0.4 -1.4,0.4 -1.8,-1 l -5.1,-17.4 c 0,-0.1 -0.1,-0.3 -0.2,-0.5 -0.1,0.2 -0.1,0.3 -0.2,0.5 l -5.1,17.4 c -0.4,1.4 -0.4,1.4 -1.8,1 -1.2,-0.4 -1.2,-0.3 -1.4,0.8 -0.5,3 -1,5.9 -1.5,8.9 -0.1,0.8 -0.3,0.9 -1,0.6 -0.8,-0.3 -1.5,-0.6 -2.3,-0.8 -0.4,-0.1 -0.7,-0.2 -0.7,0.4 0,1.1 0,2.3 0.1,3.4 0.1,2.8 0.3,5.6 0.4,8.4 0,0.6 -0.1,0.7 -0.7,0.4 -1.2,-0.6 -2.5,-1.1 -3.7,-1.6 -0.6,-0.2 -0.7,-0.1 -0.7,0.5 0.2,1.3 0.4,2.7 0.5,4 0.3,2.1 0.6,4.3 0.9,6.4 0.1,0.6 -0.1,0.9 -0.8,0.8 -1,-0.2 -2.1,-0.2 -3.1,-0.4 -0.7,-0.1 -0.8,0.2 -0.6,0.7 0.5,1.5 1,3.1 1.5,4.6 0.7,2.1 1.4,4.3 2,6.4 0.2,0.5 0.1,0.7 -0.5,0.7 h -2.2 c -1.1,0 -1.2,0.1 -0.8,1.1 1.4,3.8 2.8,7.6 4.3,11.3 0.2,0.6 0.1,0.8 -0.6,0.8 h -1.8 c -0.9,0 -0.9,0.1 -0.6,0.9 l 2.4,7.2 c 0.5,1.6 0.5,1.6 -1.1,1.9 h -0.1 c -1,0.2 -1,0.2 -0.6,1.1 1.4,2.6 2.7,5.3 4.1,7.9 0.8,1.5 0.8,1.5 -0.8,1.9 -0.6,0.2 -0.7,0.4 -0.4,0.9 1,1.7 1.9,3.5 2.8,5.3 1,1.8 2,3.6 3,5.5 0.3,0.5 0.2,0.8 -0.3,1 -0.4,0.1 -0.8,0.3 -1.2,0.5 -0.5,0.2 -0.6,0.4 -0.3,0.8 0.6,1 1.2,2.1 1.9,3.1 l 1.8,3 c 0.1,0.2 0.4,0.6 -0.1,0.7 -1.1,0.2 -0.7,0.7 -0.4,1.3 0.7,1.2 1.3,2.5 1.9,3.7 -0.2,0 -0.3,-0.2 -0.4,-0.3 -1.5,-2 -2.9,-4 -4.4,-6.1 -0.4,-0.5 -0.7,-0.7 -1.2,-0.2 -0.4,0.4 -0.6,0.4 -0.9,-0.1 -1.2,-2.7 -2.5,-5.3 -3.8,-8 -0.5,-1 -0.5,-1.1 -1.4,-0.4 -0.9,0.6 -0.9,0.6 -1.4,-0.4 -1.2,-2.3 -2.5,-4.6 -3.8,-6.8 -0.3,-0.5 -0.6,-0.6 -0.9,-0.1 -0.2,0.4 -0.5,0.7 -0.8,1.1 -0.4,0.6 -0.6,0.5 -1,-0.1 -1.2,-1.9 -2.4,-3.8 -3.6,-5.7 -0.9,-1.4 -0.8,-1.8 -1.8,0 0,0.1 -0.1,0.1 -0.1,0.2 -0.2,0.4 -0.4,0.5 -0.8,0.1 -1.8,-2.4 -3.6,-4.8 -5.4,-7.2 -1.2,-1.6 -1,-1.5 -2,0 -0.6,0.9 -0.6,0.9 -1.2,0.1 -1.8,-2.5 -3.7,-5 -5.5,-7.5 -0.4,-0.5 -0.6,-0.6 -0.9,0 l -1.2,2.1 c -0.5,0.8 -0.5,0.8 -1.2,0.2 l -6,-5.7 c -0.2,-0.2 -0.4,-0.5 -0.7,-0.4 -0.3,0.1 -0.3,0.5 -0.4,0.7 -0.2,0.8 -0.3,1.6 -0.5,2.4 -0.2,1.1 -0.3,1.1 -1.3,0.4 -2.4,-1.7 -4.8,-3.5 -7.2,-5.2 -0.8,-0.6 -0.9,-0.5 -1.1,0.4 -0.1,0.4 -0.2,0.8 -0.2,1.2 -0.1,0.6 -0.3,0.7 -0.9,0.4 -2.3,-1.1 -4.6,-2.2 -6.9,-3.4 -0.6,-0.3 -0.9,-0.2 -1,0.4 0,0.2 -0.1,0.3 -0.1,0.5 -0.1,0.8 -0.5,0.9 -1.3,0.6 -4,-1.4 -8,-2.9 -12,-4.3 -1,-0.3 -2,-0.7 -3,-1 0,0.1 -0.1,0.1 -0.1,0.2 0.2,0.2 0.4,0.5 0.6,0.7 3.3,3.4 6.7,6.8 10,10.2 0.8,0.8 0.8,0.8 0,1.7 -0.7,0.9 -0.7,0.9 0.1,1.6 l 5.1,4.2 c 0.5,0.4 0.4,0.6 0,0.9 -0.5,0.3 -1.1,0.7 -1.6,1.1 -0.7,0.5 -0.8,0.5 0,1 1.5,0.9 3,1.9 4.5,2.8 0.6,0.3 0.6,0.6 0.1,1 -0.5,0.4 -0.9,0.9 -1.4,1.4 -0.7,0.7 -0.7,0.7 0.2,1.2 2.5,1.3 5,2.7 7.5,4 0.7,0.4 0.7,0.7 0.3,1.3 -0.5,0.6 -0.9,1.3 -1.3,1.9 -0.5,0.8 -0.5,0.8 0.3,1.2 2.4,1 4.8,2 7.1,3 1.6,0.7 1.6,0.7 0.5,2.2 -0.5,0.7 -0.5,0.8 0.3,1.1 2.6,1 5.2,1.9 7.8,2.9 1.5,0.6 1.5,0.6 0.8,2.1 -0.4,0.9 -0.4,0.9 0.5,1.2 1.7,0.6 3.5,1.1 5.2,1.6 0.5,0.1 0.6,0.3 0.3,0.8 -0.6,0.7 -0.6,0.8 0.3,1 2.8,0.9 5.5,1.8 8.3,2.6 0.5,0.2 0.7,0.3 0.5,0.9 -0.3,0.9 -0.3,1 0.7,1.2 2.8,0.7 5.7,1.4 8.5,2.1 0.4,0.1 0.7,0.2 0.4,0.7 -0.6,1 -0.5,1 0.7,1 1.9,0 3.9,0 5.8,0.1 0.3,0 0.8,0 0.6,0.5 -0.3,0.7 0.2,0.9 0.7,1 1,0.2 2.1,0.5 3.1,0.8 -1.2,0.1 -2.5,-0.1 -3.7,-0.1 -0.3,0 -0.8,-0.2 -0.9,0.1 -0.2,0.9 -0.8,0.5 -1.2,0.4 -1.9,-0.4 -3.7,-0.8 -5.6,-1.2 -0.5,-0.1 -0.8,-0.1 -0.8,0.5 0.1,0.8 -0.3,0.8 -0.9,0.7 -1.9,-0.4 -3.8,-0.7 -5.6,-1 -0.4,-0.1 -0.7,-0.1 -0.7,0.5 0.1,0.9 0.1,0.9 -0.9,0.8 -1.7,-0.3 -3.3,-0.5 -5,-0.8 -0.7,-0.1 -1,0.1 -0.7,0.8 0.2,0.6 -0.1,0.7 -0.6,0.6 -1.5,-0.2 -3,-0.5 -4.6,-0.7 -1.4,-0.2 -1.4,-0.2 -1,1.2 0.3,1 0.2,1.1 -0.8,1.1 h -4.1 c -1,0 -1,0.1 -0.5,1 0.2,0.3 0.4,0.6 0.5,0.9 0.3,0.4 0.3,0.6 -0.3,0.7 -1.6,0.2 -3.3,0.5 -4.9,0.8 -1,0.2 -1.1,0.2 -0.6,1.1 0.4,0.6 0.2,0.8 -0.4,1 -1.2,0.4 -2.4,0.8 -3.6,1.2 -0.6,0.2 -0.9,0.5 -0.5,1.1 0.2,0.4 0.1,0.6 -0.3,0.7 -1.8,0.8 -3.5,1.6 -5.3,2.5 -1.1,0.5 -2.2,1.1 -3.4,1.7 0.5,0.3 0.8,0.2 1.1,0.2 h 8 c 0.5,0 1,0.1 0.9,0.8 0,0.6 0.3,0.7 0.8,0.7 1,-0.1 1.9,-0.2 2.9,-0.3 1.4,-0.1 1.4,-0.1 1.2,1.2 -0.1,0.7 0.2,0.7 0.7,0.6 0.8,-0.2 1.6,-0.3 2.4,-0.6 0.6,-0.2 1,-0.1 0.8,0.7 -0.1,0.8 0,0.9 0.8,0.7 1.2,-0.3 2.4,-0.5 3.6,-0.8 1.7,-0.4 1.8,-0.4 2.1,1.4 0.1,0.6 0.3,0.7 0.9,0.5 1.4,-0.6 2.9,-1.1 4.3,-1.7 0.7,-0.3 1,-0.1 1,0.6 0,0.6 0.3,0.6 0.8,0.4 1.5,-0.7 3.1,-1.4 4.6,-2.1 0.6,-0.3 0.9,-0.3 1,0.5 0.1,0.6 0.4,0.7 0.9,0.4 0.9,-0.5 1.7,-0.9 2.6,-1.3 0.2,-0.1 0.6,-0.4 0.6,0.2 0.1,0.7 0.5,0.5 0.8,0.3 1.4,-0.8 2.8,-1.5 4.2,-2.3 0.3,-0.2 0.7,-0.5 0.9,0.1 0.2,0.7 0.6,0.5 1.1,0.2 1.3,-0.8 2.7,-1.5 4,-2.3 0.3,-0.2 0.6,-0.3 0.7,0.2 0.2,0.6 0.5,0.6 1,0.3 0.9,-0.6 1.9,-1.2 2.8,-1.8 0.2,-0.1 0.5,-0.4 0.7,-0.2 0.6,0.4 0.9,0 1.4,-0.2 0.4,-0.3 0.9,-0.6 1.3,-0.9 0.2,-0.1 0.4,-0.4 0.6,-0.1 0.3,0.3 0.6,0.1 0.9,0 0.7,-0.3 1.5,-0.7 2.4,-1.1 -0.3,0.3 -0.5,0.5 -0.5,0.6 0.4,0.8 -0.3,0.7 -0.7,0.8 -0.2,0.1 -0.5,0.2 -0.8,0.2 -0.2,0.1 -0.4,0.2 -0.3,0.4 0.2,0.6 -0.2,0.6 -0.5,0.7 -0.5,0.2 -0.9,0.4 -1.4,0.5 -0.2,0.1 -0.5,0.2 -0.4,0.4 0.2,0.7 -0.3,0.7 -0.7,0.9 -0.5,0.3 -1.1,0.5 -1.6,0.7 -0.2,0.1 -0.6,0.2 -0.4,0.5 0.2,0.5 -0.1,0.6 -0.4,0.7 -0.6,0.3 -1.2,0.5 -1.7,0.8 -0.4,0.2 -0.6,0.4 -0.2,0.7 0.4,0.3 0.3,0.6 -0.1,0.8 -0.5,0.3 -0.9,0.6 -1.4,0.9 -0.4,0.3 -0.5,0.5 0,0.8 0.5,0.2 0.4,0.5 0,0.7 -0.6,0.4 -1.1,0.8 -1.7,1.2 -0.2,0.2 -0.5,0.4 -0.1,0.6 0.7,0.3 0.4,0.7 0.1,1.1 -0.3,0.3 -0.6,0.7 -0.9,1 -0.2,0.2 -0.3,0.5 0,0.7 0.2,0.2 0.1,0.4 0,0.6 -0.3,0.4 -0.5,0.9 -0.8,1.3 -0.5,0.8 -1,1.7 -1.6,2.6 0.5,0 0.7,-0.2 0.9,-0.4 1,-0.6 1.9,-1.2 2.9,-1.8 0.2,-0.1 0.4,-0.4 0.6,-0.1 0.4,0.4 0.7,0.1 1,-0.2 0.3,-0.2 0.6,-0.5 0.9,-0.7 0.2,-0.1 0.4,-0.2 0.5,0 0.4,0.9 0.7,0.2 1,-0.1 0.3,-0.3 0.6,-1 1.2,-0.2 0.1,0.2 0.4,-0.1 0.5,-0.2 l 1.2,-1.2 c 0.3,-0.3 0.7,-0.5 1.1,-0.1 0.3,0.4 0.6,0.2 0.8,-0.2 0.4,-0.5 0.7,-1 1.1,-1.6 0.2,-0.3 0.4,-0.4 0.6,-0.1 0.5,0.5 0.7,0.2 0.9,-0.3 0.4,-0.7 0.7,-1.4 1.1,-2.1 0.7,0.7 0.7,0.7 1.1,-0.1 0.1,-0.3 0.3,-0.5 0.4,-0.8 0.1,-0.4 0.2,-0.7 0.7,-0.3 0.3,0.3 0.4,-0.1 0.5,-0.3 0.3,-0.6 0.5,-1.2 0.8,-1.8 0.1,-0.2 0.1,-0.6 0.4,-0.5 0.5,0.1 0.6,-0.3 0.8,-0.6 l -2.6,22.6 h 11.7 l -2.6,-22.6 c 0.2,0.3 0.2,0.7 0.8,0.6 0.3,-0.1 0.3,0.3 0.4,0.5 0.3,0.6 0.5,1.2 0.8,1.8 0.1,0.2 0.2,0.6 0.5,0.3 0.5,-0.4 0.6,-0.1 0.7,0.3 0.1,0.3 0.2,0.5 0.4,0.8 0.4,0.8 0.4,0.8 1.1,0.1 0.4,0.7 0.8,1.4 1.1,2.1 0.2,0.4 0.4,0.8 0.9,0.3 0.3,-0.3 0.5,-0.1 0.6,0.1 0.4,0.5 0.7,1 1.1,1.6 0.2,0.3 0.5,0.5 0.8,0.2 0.4,-0.4 0.7,-0.3 1.1,0.1 l 1.2,1.2 c 0.1,0.1 0.4,0.4 0.5,0.2 0.6,-0.8 0.8,0 1.2,0.2 0.3,0.2 0.6,1 1,0.1 0.1,-0.2 0.3,-0.1 0.5,0 0.3,0.2 0.6,0.5 0.9,0.7 0.3,0.2 0.6,0.6 1,0.2 0.2,-0.2 0.4,0 0.6,0.1 1,0.6 1.9,1.2 2.9,1.8 0.2,0.1 0.4,0.4 0.9,0.4 -0.6,-0.9 -1.1,-1.7 -1.6,-2.6 -0.3,-0.4 -0.5,-0.9 -0.8,-1.3 -0.1,-0.2 -0.3,-0.4 0,-0.6 0.3,-0.2 0.1,-0.5 0,-0.7 -0.3,-0.3 -0.6,-0.7 -0.9,-1 -0.4,-0.4 -0.6,-0.8 0.1,-1.1 0.4,-0.2 0.2,-0.4 -0.1,-0.6 -0.5,-0.4 -1.1,-0.8 -1.7,-1.2 -0.4,-0.3 -0.5,-0.5 0,-0.7 0.5,-0.2 0.5,-0.5 0,-0.8 -0.5,-0.3 -0.9,-0.6 -1.4,-0.9 -0.4,-0.2 -0.5,-0.5 -0.1,-0.8 0.4,-0.4 0.2,-0.6 -0.2,-0.7 -0.6,-0.3 -1.2,-0.5 -1.7,-0.8 -0.3,-0.1 -0.6,-0.2 -0.4,-0.7 0.2,-0.4 -0.2,-0.4 -0.4,-0.5 -0.5,-0.3 -1.1,-0.5 -1.6,-0.7 -0.4,-0.2 -0.9,-0.2 -0.7,-0.9 0.1,-0.2 -0.2,-0.3 -0.4,-0.4 -0.5,-0.2 -0.9,-0.4 -1.4,-0.5 -0.3,-0.1 -0.8,-0.2 -0.5,-0.7 0.1,-0.2 -0.1,-0.3 -0.3,-0.4 -0.2,-0.1 -0.5,-0.1 -0.8,-0.2 -0.3,-0.2 -1,0 -0.7,-0.8 0,-0.1 -0.2,-0.3 -0.5,-0.6 1,0.4 1.7,0.7 2.4,1.1 0.3,0.1 0.6,0.3 0.9,0 0.2,-0.2 0.4,0 0.6,0.1 0.4,0.3 0.9,0.6 1.3,0.9 0.4,0.3 0.8,0.6 1.4,0.2 0.2,-0.2 0.5,0.1 0.7,0.2 0.9,0.6 1.9,1.2 2.8,1.8 0.5,0.3 0.8,0.4 1,-0.3 0.1,-0.5 0.4,-0.4 0.7,-0.2 1.3,0.8 2.7,1.5 4,2.3 0.5,0.3 0.9,0.4 1.1,-0.2 0.2,-0.6 0.6,-0.3 0.9,-0.1 1.4,0.8 2.8,1.5 4.2,2.3 0.4,0.2 0.8,0.4 0.8,-0.3 0.1,-0.5 0.4,-0.3 0.6,-0.2 0.9,0.4 1.8,0.9 2.6,1.3 0.5,0.3 0.8,0.2 0.9,-0.4 0.1,-0.7 0.4,-0.7 1,-0.5 1.5,0.7 3.1,1.4 4.6,2.1 0.5,0.2 0.8,0.2 0.8,-0.4 0,-0.7 0.3,-0.9 1,-0.6 1.4,0.6 2.9,1.1 4.3,1.7 0.6,0.2 0.8,0.1 0.9,-0.5 0.4,-1.8 0.4,-1.8 2.1,-1.4 1.2,0.3 2.4,0.5 3.6,0.8 0.8,0.2 0.9,0.1 0.8,-0.7 -0.1,-0.8 0.2,-0.8 0.8,-0.7 l 2.4,0.6 c 0.5,0.1 0.8,0.1 0.7,-0.6 -0.2,-1.3 -0.1,-1.3 1.2,-1.2 0.9,0.1 1.9,0.2 2.9,0.3 0.5,0.1 0.9,-0.1 0.8,-0.7 0,-0.7 0.4,-0.8 0.9,-0.8 h 8 c 0.3,0 0.6,0.1 1.1,-0.2 -1.2,-0.6 -2.3,-1.1 -3.4,-1.7 -1.8,-0.8 -3.5,-1.7 -5.3,-2.5 -0.4,-0.2 -0.5,-0.4 -0.3,-0.7 0.4,-0.6 0.1,-0.9 -0.5,-1.1 -1.2,-0.4 -2.4,-0.8 -3.6,-1.2 -0.6,-0.2 -0.8,-0.4 -0.4,-1 0.5,-0.8 0.5,-0.9 -0.6,-1.1 -1.6,-0.2 -3.3,-0.5 -4.9,-0.8 -0.6,-0.1 -0.6,-0.3 -0.3,-0.7 l 0.6,-0.9 c 0.5,-0.9 0.5,-1 -0.5,-1 h -4.1 c -1,0 -1.1,-0.1 -0.8,-1.1 0.4,-1.4 0.4,-1.4 -1,-1.2 -1.5,0.2 -3,0.4 -4.6,0.7 -0.6,0.1 -0.8,0 -0.6,-0.6 0.2,-0.7 -0.1,-0.9 -0.7,-0.8 -1.7,0.3 -3.3,0.5 -5,0.8 -0.9,0.1 -1,0.1 -0.9,-0.8 0.1,-0.6 -0.3,-0.6 -0.7,-0.5 -1.9,0.3 -3.8,0.7 -5.6,1 -0.6,0.1 -1,0.1 -0.9,-0.7 0,-0.6 -0.3,-0.6 -0.8,-0.5 -1.9,0.4 -3.7,0.8 -5.6,1.2 -0.4,0.1 -1,0.5 -1.2,-0.4 -0.1,-0.3 -0.6,-0.2 -0.9,-0.1 -1.2,0.1 -2.4,0.2 -3.7,0.1 1,-0.3 2.1,-0.5 3.1,-0.8 0.5,-0.1 1,-0.2 0.7,-1 -0.2,-0.5 0.3,-0.5 0.6,-0.5 1.9,-0.2 3.9,-0.1 5.8,-0.1 1.2,0 1.2,-0.1 0.7,-1 -0.3,-0.6 0,-0.6 0.4,-0.7 2.8,-0.7 5.7,-1.4 8.5,-2.1 1,-0.2 1,-0.3 0.7,-1.2 -0.2,-0.6 0,-0.7 0.5,-0.9 2.8,-0.9 5.5,-1.7 8.3,-2.6 0.9,-0.3 0.9,-0.3 0.3,-1 -0.4,-0.5 -0.2,-0.6 0.3,-0.8 1.7,-0.5 3.5,-1.1 5.2,-1.6 1,-0.3 1,-0.3 0.5,-1.2 -0.8,-1.5 -0.8,-1.5 0.8,-2.1 2.6,-1 5.2,-1.9 7.8,-2.9 0.8,-0.3 0.9,-0.4 0.3,-1.1 -1,-1.4 -1,-1.5 0.5,-2.2 2.4,-1 4.7,-2 7.1,-3 0.9,-0.4 0.9,-0.4 0.3,-1.2 -0.4,-0.6 -0.8,-1.3 -1.3,-1.9 -0.4,-0.6 -0.4,-0.9 0.3,-1.3 2.5,-1.3 5,-2.7 7.5,-4 0.9,-0.5 0.9,-0.5 0.2,-1.2 -0.4,-0.5 -0.9,-0.9 -1.4,-1.4 -0.4,-0.4 -0.4,-0.7 0.1,-1 1.5,-0.9 3,-1.8 4.6,-2.8 0.7,-0.5 0.7,-0.5 0,-1 -0.5,-0.4 -1,-0.7 -1.6,-1.1 -0.4,-0.3 -0.5,-0.5 0,-0.9 l 5.1,-4.2 c 0.9,-0.7 0.9,-0.7 0.2,-1.6 -0.8,-0.9 -0.8,-0.9 0,-1.7 5.1,-3.4 8.5,-6.8 11.8,-10.2"
   id="path34" />
</g></svg>
